<svg version="1.2" xmlns="http://www.w3.org/2000/svg" viewBox="-3 -3 518 518" width="512" height="512"><g id="deeditor_bgCarrier" stroke-width="0">
  <rect id="dee_c_e" x="-3" y="-3" width="518" height="518" rx="130" fill="#8656bd" strokewidth="0"/>
</g>
	<title>crystalize-svg</title>
	<style>
		.s0 { fill: #ffffff } 
	</style>
	<g id="Layer">
		<path id="Layer" fill-rule="evenodd" class="s0" d="m259.9 37.6l2.2 6.2c0 0 16.6 46.6 42.1 92.6 25.8 46.6 28.6 46.9 60.6 92.6 21.7 31 46 65.8 46 110.4 0 87-70.6 158.2-157.5 158.2-86.9 0-157.4-71.2-157.4-158.2 0-44.7 24.2-79.3 45.9-110.4 31.8-45.3 33.8-44.4 59.6-91 25.5-46.1 43.1-94.3 43.1-94.3l2.3-6.1c0 0 13.1 0 13.1 0zm-28.8 198.7l96.9 48.1 32.5-28.6c-3.6-5.4-7.3-10.7-11-16.1-6.9-9.9-12.4-17.5-17.2-24.2 2.8 14.6 0.4 26.7-7.6 31.3-12.9 7.4-35.3-7.4-50.1-33-14.8-25.7-16.4-52.5-3.5-59.9 6.2-3.6 14.7-2 23.4 3.5-2-3.7-4.2-7.6-6.7-12-10.7-19.3-19.5-38.1-26.5-53.9 0 0-30.2 144.8-30.2 144.8zm-13.3-89.3c-26.1 47.1-29.2 47.8-60.7 92.7-19.3 27.7-38 55.1-41.8 87.6l59.5 24.9 7.9-25c-4.1 3.3-8.1 5.1-11.7 5-13.5-0.3-16.4-26.8-6.4-59.2 10-32.4 29.1-58.4 42.6-58.1 3.5 0.1 6.2 1.9 8.3 5.1l24.3-116.8c-6.2 13.6-13.6 28.6-22 43.8zm-26.6 215.2l44.3 54.7 76.1-22.2 3.6-32.9c-9.6 10.2-23.2 16.6-38.3 16.6-28.9 0-52.3-23.5-52.3-52.4 0-25.3 18-46.4 41.8-51.3l-41-20.3c0 0-34.2 107.8-34.2 107.8zm149.7-64.2l-10.7 98.3 39.8 18.6c7.8-12.2 13.8-25.7 17.6-40.1-2.8 1.6-5.7 2.4-8.8 2.4-14.3 0-25.9-18.8-25.9-42 0-23.2 11.6-42 25.9-42q1.6 0 3.1 0.3c-3.2-7.4-7.1-14.6-11.3-21.7 0.1 0-29.7 26.2-29.7 26.2zm-129.6 174.4l8.7-45.1-21.7-26.7c-3.5 10.2-13.1 17.4-24.4 17.4-14.4 0-26-11.6-26-25.9 0-10.9 6.7-20.2 16.3-24.1l-49.4-20.6c3.3 58.7 42.8 107.8 96.5 125zm82.2-24.3c-21.3 6.3-37.6 3.3-36.5-6.6 0.5-4.5 4.5-9.7 10.7-14.6l-30.3 8.9-7.9 41.1c7.7 1.3 15.7 2 23.8 2 42.2 0 79.9-18.9 105.3-48.7l-24.5-11.4c-1.2 9.9-19.3 23-40.6 29.3z" fill="#000000"/>
	</g>
</svg>